<?xml version="1.0" encoding="utf-8"?>
<!-- Generator: Adobe Illustrator 22.1.0, SVG Export Plug-In . SVG Version: 6.00 Build 0)  -->
<svg version="1.1" id="Camada_1" xmlns="http://www.w3.org/2000/svg" xmlns:xlink="http://www.w3.org/1999/xlink" x="0px" y="0px"
	 viewBox="0 0 541 188" style="enable-background:new 0 0 541 188;" xml:space="preserve">
<style type="text/css">
	.st0{fill:#928279;}
	.st1{fill:#595A5C;}
	.st2{fill:#777777;}
	.st3{font-family:'ITCAvantGardeStd-BkCn';}
	.st4{font-size:25.9075px;}
	.st5{letter-spacing:2;}
	.st6{fill:#BCB39A;}
</style>
<g>
	<path class="st0" d="M12.5,124.4c0.2,7.4,1.1,9.8,3.5,10.5c1.7,0.4,3.7,0.5,4.5,0.5c0.5,0,0.7,0.2,0.7,0.5c0,0.5-0.5,0.7-1.6,0.7
		c-5.1,0-8.8-0.3-9.6-0.3c-0.8,0-4.6,0.3-8.7,0.3c-0.9,0-1.4-0.1-1.4-0.7c0-0.4,0.3-0.5,0.7-0.5c0.7,0,2.3-0.1,3.7-0.5
		c2.3-0.6,2.7-3.2,2.7-11.5l0.1-51.7c0-3.5,0.3-4.5,1-4.5c0.7,0,2.3,2,3.2,2.9c1.4,1.5,14.8,16.1,28.7,31
		c8.9,9.6,18.8,20.6,21.7,23.6l-1-45.9c-0.1-5.9-0.7-7.9-3.5-8.6c-1.6-0.4-3.7-0.5-4.4-0.5c-0.6,0-0.7-0.3-0.7-0.6
		c0-0.5,0.7-0.6,1.8-0.6c4.1,0,8.4,0.3,9.4,0.3c1,0,4-0.3,7.7-0.3c1,0,1.6,0.1,1.6,0.6c0,0.4-0.4,0.6-1,0.6c-0.4,0-1.1,0-2.2,0.3
		c-3,0.6-3.3,2.6-3.3,8l-0.2,52.9c0,6-0.2,6.4-0.8,6.4c-0.7,0-1.8-1-6.6-5.8c-1-0.9-14-14.2-23.6-24.5
		C24.5,95.8,14.3,84.4,11.4,81.2L12.5,124.4"/>
	<path class="st0" d="M108.6,70.7c1.1-3,1.4-3.5,2-3.5c0.5,0,0.9,0.5,2,3.3c1.4,3.4,15.5,40.7,21,54.4c3.2,8,5.9,9.5,7.8,10
		c1.4,0.4,2.7,0.5,3.6,0.5c0.5,0,0.9,0.1,0.9,0.5c0,0.5-0.8,0.7-1.8,0.7c-1.4,0-7.9,0-14.2-0.2c-1.7-0.1-2.7-0.1-2.7-0.6
		c0-0.4,0.3-0.5,0.6-0.6c0.5-0.2,1.1-1,0.5-2.4l-8.4-22.2c-0.2-0.4-0.4-0.5-0.8-0.5H99.7c-0.5,0-0.7,0.3-0.9,0.7l-5.4,16
		c-0.8,2.3-1.3,4.4-1.3,6c0,1.8,1.9,2.6,3.4,2.6h0.9c0.6,0,0.9,0.2,0.9,0.5c0,0.5-0.5,0.7-1.4,0.7c-2.2,0-6-0.3-7-0.3
		c-1,0-6,0.3-10.2,0.3c-1.2,0-1.7-0.2-1.7-0.7c0-0.4,0.4-0.5,0.8-0.5c0.6,0,1.9-0.1,2.6-0.2c4.1-0.5,6-4,7.6-8.5L108.6,70.7
		 M118,106.8c0.5,0,0.5-0.3,0.4-0.6l-8.6-24.4c-0.5-1.4-0.9-1.4-1.4,0l-7.9,24.4c-0.2,0.5,0,0.6,0.3,0.6H118z"/>
	<path class="st0" d="M153.9,135.5c-1.3-0.6-1.4-1-1.4-3.4c0-4.5,0.4-8.1,0.4-9.6c0.1-1,0.3-1.4,0.7-1.4c0.5,0,0.6,0.3,0.6,1
		c0,0.8,0,2.1,0.3,3.3c1.4,6.7,7.3,9.2,13.4,9.2c8.7,0,12.9-6.2,12.9-12c0-6.2-2.6-9.8-10.4-16.2l-4.1-3.3
		c-9.6-7.9-11.7-13.4-11.7-19.6c0-9.7,7.2-16.2,18.7-16.2c3.5,0,6.1,0.4,8.4,0.9c1.7,0.4,2.4,0.4,3.2,0.4c0.7,0,0.9,0.2,0.9,0.6
		c0,0.5-0.4,3.4-0.4,9.6c0,1.4-0.2,2.1-0.6,2.1c-0.5,0-0.6-0.5-0.7-1.2c-0.1-1.1-0.6-3.5-1.2-4.5c-0.5-1-3-4.8-11.3-4.8
		c-6.2,0-11.1,3.9-11.1,10.5c0,5.1,2.3,8.4,11,15.2l2.5,2c10.7,8.4,13.2,14,13.2,21.2c0,3.7-1.4,10.6-7.7,15
		c-3.9,2.7-8.8,3.8-13.6,3.8C161.8,138,157.6,137.3,153.9,135.5"/>
	<path class="st0" d="M211.8,128.2c-8.8-7.9-10.9-18.1-10.9-26.7c0-6,2.1-16.6,10.1-24.6c5.4-5.4,13.6-9.7,27.5-9.7
		c3.6,0,8.7,0.3,13.1,1.1c3.4,0.6,6.3,1.2,9.2,1.4c1,0.1,1.2,0.5,1.2,1c0,0.7-0.3,1.8-0.5,5.1c-0.2,3-0.2,7.9-0.3,9.3
		c-0.1,1.4-0.3,1.9-0.8,1.9c-0.6,0-0.7-0.6-0.7-1.9c0-3.5-1.4-7.2-3.8-9.2c-3.2-2.7-10.1-5.1-18.1-5.1c-12,0-17.6,3.5-20.8,6.6
		c-6.6,6.3-8.1,14.3-8.1,23.6c0,17.2,13.3,33,32.6,33c6.8,0,12.1-0.8,15.7-4.5c1.9-2,3.1-6,3.3-7.6c0.2-1,0.4-1.4,0.9-1.4
		c0.5,0,0.6,0.6,0.6,1.4c0,0.6-1.1,8.5-2,11.5c-0.5,1.7-0.7,1.9-2.3,2.6c-3.6,1.4-10.5,2.1-16.2,2.1
		C228,138,218.9,134.6,211.8,128.2"/>
	<path class="st0" d="M283.8,94.6c0-14.1,0-16.6-0.2-19.5c-0.2-3.1-0.9-4.5-3.9-5.2c-0.7-0.2-2.3-0.3-3.1-0.3
		c-0.4,0-0.7-0.2-0.7-0.5c0-0.5,0.5-0.7,1.4-0.7c2.1,0,4.5,0,6.5,0.1l3.7,0.2c0.6,0,18.6,0,20.7-0.1c1.7-0.1,3.2-0.3,3.9-0.4
		c0.5-0.1,0.8-0.5,1.3-0.5c0.3,0,0.4,0.4,0.4,0.8c0,0.6-0.5,1.7-0.7,4.2c-0.1,0.9-0.3,4.9-0.4,6c-0.1,0.5-0.3,1-0.6,1
		c-0.5,0-0.7-0.5-0.7-1.2c0-0.6-0.1-2.2-0.5-3.2c-0.6-1.4-1.5-2.5-6.4-3.1c-1.5-0.2-11.4-0.3-12.4-0.3c-0.4,0-0.5,0.3-0.5,0.9v24.9
		c0,0.6,0.1,0.9,0.5,0.9c1.2,0,12.3,0,14.4-0.2c2.2-0.2,3.4-0.4,4.2-1.3c0.6-0.7,1-1.2,1.4-1.2c0.3,0,0.5,0.2,0.5,0.7
		c0,0.5-0.5,2.1-0.7,5.1c-0.2,1.8-0.4,5.1-0.4,5.8c0,0.7,0,1.7-0.6,1.7c-0.5,0-0.6-0.4-0.6-0.8c0-0.9,0-1.8-0.4-3
		c-0.4-1.3-1.2-2.8-4.7-3.2c-2.4-0.3-11.4-0.5-12.9-0.5c-0.4,0-0.6,0.3-0.6,0.6v7.9c0,3.1-0.1,13.5,0,15.4c0.3,6.2,1.6,7.4,10.5,7.4
		c2.4,0,6.3,0,8.7-1c2.3-1,3.4-2.8,4.1-6.5c0.2-1,0.4-1.4,0.8-1.4c0.5,0,0.5,0.7,0.5,1.4c0,0.7-0.7,6.9-1.2,8.8
		c-0.6,2.3-1.4,2.3-4.9,2.3c-6.8,0-11.7-0.2-15.3-0.3c-3.5-0.2-5.7-0.3-7-0.3c-0.2,0-1.7,0-3.6,0.1c-1.8,0-3.9,0.2-5.2,0.2
		c-1,0-1.5-0.2-1.5-0.7c0-0.3,0.2-0.5,0.7-0.5c0.8,0,1.9-0.2,2.7-0.4c1.8-0.4,2.3-2.3,2.6-5c0.4-3.8,0.4-10.9,0.4-19.6V94.6"/>
	<path class="st0" d="M338.9,94.6c0-14.1,0-16.6-0.2-19.5c-0.2-3.1-0.9-4.5-3.9-5.2c-0.7-0.2-2.3-0.3-3.1-0.3
		c-0.4,0-0.7-0.2-0.7-0.5c0-0.5,0.5-0.7,1.4-0.7c4.1,0,9.8,0.3,10.2,0.3c1,0,7.9-0.3,10.7-0.3c5.7,0,11.7,0.5,16.5,4
		c2.3,1.6,6.2,6,6.2,12.3c0,6.7-2.8,13.4-10.9,20.9c7.4,9.5,13.5,17.5,18.8,23.1c4.9,5.1,8.8,6.1,11,6.5c1.7,0.3,3,0.3,3.5,0.3
		c0.5,0,0.8,0.3,0.8,0.5c0,0.5-0.5,0.7-2.2,0.7h-6.4c-5.1,0-7.3-0.4-9.7-1.7c-3.9-2.1-7-6.5-12.2-13.3c-3.8-5-8-11-9.8-13.4
		c-0.4-0.4-0.6-0.5-1.2-0.5l-11.1-0.2c-0.5,0-0.6,0.3-0.6,0.7v2.2c0,8.7,0,15.8,0.5,19.6c0.3,2.6,0.8,4.6,3.5,5
		c1.3,0.2,3.3,0.4,4.1,0.4c0.5,0,0.7,0.3,0.7,0.5c0,0.5-0.5,0.7-1.4,0.7c-5,0-10.7-0.3-11.1-0.3c-0.1,0-5.8,0.3-8.5,0.3
		c-1,0-1.4-0.2-1.4-0.7c0-0.3,0.2-0.5,0.7-0.5c0.8,0,1.9-0.2,2.7-0.4c1.8-0.4,2.3-2.3,2.6-5c0.5-3.8,0.5-10.9,0.5-19.6V94.6
		 M346.1,102.5c0,0.4,0.2,0.8,0.6,1.1c1.4,0.8,5.5,1.4,9.5,1.4c2.2,0,4.7-0.3,6.8-1.7c3.2-2.2,5.5-7,5.5-13.9c0-11.3-6-18-15.6-18
		c-2.7,0-5.1,0.3-6,0.5c-0.5,0.2-0.7,0.5-0.7,1.1V102.5z"/>
	<rect x="6.8" y="15.1" class="st1" width="2.7" height="31.9"/>
	<polyline class="st1" points="57.5,47 43.7,18 43.7,47 41.2,47 41.2,15.1 45.1,15.1 58.5,43.4 58.5,15.1 61.1,15.1 61.1,47 
		57.5,47 	"/>
	<path class="st1" d="M99.3,47.2c-2.4,0-5.2-0.7-7.7-2.1l0.9-2c2.1,1.1,4.3,1.8,6.8,1.8c4.3,0,6.5-2.2,6.5-5.8
		c0-8.1-14.5-7.1-14.5-16.4c0-4.5,3.1-7.8,8.7-7.8c2.6,0,5.3,0.8,7.3,1.9l-0.9,1.9c-1.7-0.8-4.2-1.6-6.3-1.6c-4,0-6.1,2.2-6.1,5.2
		c0,7.7,14.5,6.5,14.5,16.3C108.5,44,105,47.2,99.3,47.2"/>
	<polyline class="st1" points="145.2,17.4 145.2,47 142.6,47 142.6,17.4 134.4,17.4 134.4,15.1 153.4,15.1 153.4,17.4 145.2,17.4 	
		"/>
	<rect x="181.5" y="15.1" class="st1" width="2.7" height="31.9"/>
	<polyline class="st1" points="223,17.4 223,47 220.4,47 220.4,17.4 212.2,17.4 212.2,15.1 231.2,15.1 231.2,17.4 223,17.4 	"/>
	<path class="st1" d="M268.9,47.2c-6.8,0-9.7-3.2-9.7-9.5V15.1h2.7v22.5c0,4.9,1.8,7.3,7.1,7.3c5.7,0,7.1-2.8,7.1-7.3V15.1h2.7v22.4
		C278.9,43,276.2,47.2,268.9,47.2"/>
	<polyline class="st1" points="317.8,17.4 317.8,47 315.1,47 315.1,17.4 307,17.4 307,15.1 326,15.1 326,17.4 317.8,17.4 	"/>
	<path class="st1" d="M362.9,47.2h-0.3c-8.4,0-11.7-4.8-11.7-16c0-10.8,3.9-16.3,11.8-16.3h0.3c8.4,0,11.6,4.8,11.6,16.1
		C374.7,41.6,370.8,47.2,362.9,47.2 M362.7,17.1c-6.7,0-9.1,5-9.1,13.9c0,8.4,2,13.9,9.2,13.9c6.7,0,9.1-5,9.1-13.9
		C372,22.6,369.9,17.1,362.7,17.1z"/>
	<text transform="matrix(1 0 0 1 3.3335 173.0172)" class="st2 st3 st4 st5">Experiência única de cuidado</text>
</g>
<path class="st6" d="M517.6,108.3c-10.7-14.9-24.3-25.3-39.5-30c15.5-7.1,25.3-21.1,25.3-36.6c0-22.8-21.1-41.3-46.9-41.3
	c-25.9,0-46.9,18.5-46.9,41.3c0,15.7,9.9,29.8,25.6,36.8c-15,4.8-28.5,15.1-39.1,29.9c-21.2,29.5-27.8,50.4-20.2,64
	c5.9,10.6,19.9,15.7,42.7,15.7c4.4,0,9-0.2,14.6-0.6c8.8-0.6,16.8-2,23.7-4c7,2.1,15,3.4,23.7,4c5.6,0.4,10.2,0.6,14.6,0.6
	c22.8,0,36.8-5.1,42.7-15.7C545.4,158.8,538.7,137.8,517.6,108.3 M429.6,143.7c2-3.2,5.8-5.7,10.1-6.7c0.7-0.2,1.5-0.2,2.3-0.2
	c1.9,0,8.5,0.6,11.1,8.4l0.2,0.4c1.1,2,2.8,2.2,3.7,2.2c0.7,0,2.4-0.2,3.5-2.3l0.2-0.4c2.6-7.7,9.1-8.3,11.1-8.3
	c0.8,0,1.6,0.1,2.3,0.2c4.2,1,8.1,3.5,10.1,6.7c1.3,2.1,1.7,4.4,1.1,6.8c-2.9,11.9-16.9,19.9-28.4,24.6
	c-11.5-4.7-25.5-12.7-28.4-24.6C427.9,148.2,428.3,145.9,429.6,143.7z M492,152.2c1-4.2,0.3-8.4-2-12.1c-3-4.8-8.4-8.5-14.5-9.8
	c-1.2-0.3-2.5-0.4-3.8-0.4c-5.9,0-11.4,2.9-14.9,7.6c-3.5-4.7-9-7.6-14.9-7.6c-1.3,0-2.6,0.1-3.8,0.4c-6.1,1.4-11.5,5.1-14.5,9.9
	c-2.3,3.7-3,7.9-2,12.1c2.5,10.1,11.3,19.2,25.6,26.3c-4.5,0.9-9.5,1.6-14.7,1.9c-28.6,2-45.1-1.8-50.6-11.5
	c-6-10.8,0.6-29.8,19.8-56.4c12.7-17.7,29.9-28.3,48.1-29.9c4.5,0.6,9.2,0.5,13.1,0c18.7,1.5,36.1,12.1,48.9,29.9
	c19.1,26.7,25.8,45.7,19.8,56.4c-5.5,9.8-22,13.6-50.6,11.5c-5.2-0.4-10.1-1-14.7-1.9C480.7,171.4,489.5,162.3,492,152.2z
	 M456.5,8.5c21.4,0,38.8,14.9,38.8,33.1c0,18.3-17.4,33.1-38.8,33.1c-21.4,0-38.8-14.9-38.8-33.1C417.7,23.4,435.1,8.5,456.5,8.5z"
	/>
</svg>
